<?xml version="1.0" standalone="no"?>
<!DOCTYPE svg PUBLIC "-//W3C//DTD SVG 20010904//EN"
 "http://www.w3.org/TR/2001/REC-SVG-20010904/DTD/svg10.dtd">
<svg version="1.0" xmlns="http://www.w3.org/2000/svg"
 width="140.000000pt" height="140.000000pt" viewBox="0 0 140.000000 140.000000"
 preserveAspectRatio="xMidYMid meet">

<g transform="translate(0.000000,140.000000) scale(0.100000,-0.100000)"
fill="#000000" stroke="none">
<path d="M0 700 l0 -700 700 0 700 0 0 700 0 700 -700 0 -700 0 0 -700z m861
433 c54 -21 63 -50 28 -91 -32 -36 -37 -72 -14 -96 16 -15 16 -62 0 -100 -10
-23 7 -34 45 -28 35 5 40 28 8 38 -22 7 -22 7 5 30 31 26 53 23 63 -9 3 -12
17 -36 30 -54 14 -18 28 -52 32 -75 5 -25 20 -56 36 -73 17 -18 24 -22 20 -10
-5 12 -4 16 3 12 6 -4 14 0 17 9 4 9 9 14 12 11 3 -3 -2 -19 -10 -36 -21 -41
-20 -46 6 -21 12 11 30 20 40 20 14 0 18 8 19 38 0 20 4 46 8 56 13 33 20 4
11 -44 -6 -35 -18 -53 -49 -81 -28 -25 -41 -45 -41 -63 0 -31 13 -33 48 -6 30
24 42 14 42 -34 0 -33 -76 -159 -93 -153 -17 5 -24 47 -26 158 -1 57 -3 105
-5 106 -4 5 -376 14 -621 16 -132 1 -229 3 -215 5 80 9 79 12 -15 56 -158 75
-218 176 -105 176 77 0 174 -47 258 -124 l32 -30 0 63 c0 34 -5 71 -10 82 -7
13 -8 25 -1 37 10 16 10 15 11 -3 1 -18 2 -19 13 -3 7 9 26 20 41 24 19 4 34
19 48 49 11 23 32 49 47 58 14 9 43 32 63 52 66 63 129 74 219 38z m140 -197
c-7 -8 -18 -13 -26 -10 -7 3 -16 1 -20 -5 -3 -6 -11 -11 -16 -11 -6 0 4 13 22
30 21 19 37 26 43 20 6 -6 5 -15 -3 -24z m179 -200 c0 -20 -19 -31 -32 -18 -6
6 -7 15 -4 21 10 16 36 13 36 -3z"/>
<path d="M910 775 c0 -8 7 -15 15 -15 8 0 15 7 15 15 0 8 -7 15 -15 15 -8 0
-15 -7 -15 -15z"/>
</g>
</svg>
